<svg xmlns="http://www.w3.org/2000/svg"
  xmlns:xlink="http://www.w3.org/1999/xlink"
  width="1300" height="1800">

<defs>

  <g id="object" stroke="black" stroke-width="3" fill="none">

	<path d="M200 330 Q180 300 200 300 T 200 330 Z
			M180 295 Q190 265 200 260
			M220 300 Q205 290 200 265 
			M200 300 C200 50 200 0 300 0
			C400 0 400 50 400 300
			M0 250 C0 800 0 800 50 800
			L550 800
			C600 800 600 800 600 250 Z" />

  </g>

  <g id="jun" stroke="black" stroke-width="2" fill="none">

    <path d="M2 1 C50 15 -33 40 23 34
            M36 4 C34 6 17 35 38 34
            C54 35 47 -10 36 4 Z
            M65 1 Q60 7 60 35
            M97 9 C97 -7 64 5 85 15
            Q97 20 97 9
            Q95 30 97 35
            M124 2 C145 -5 145 11 124 12
            M134 10 Q140 10 145 14
            M123 19 C140 15 157 21 137 28
            M127 24 C130 37 130 36 145 33" />

  </g>

</defs>

  <use xlink:href="#object" x="350" y="500" />
  
  <use xlink:href="#jun" x="1000" y="1550" />

</svg>
