<svg xmlns="http://www.w3.org/2000/svg"
  xmlns:xlink="http://www.w3.org/1999/xlink"
  width="1300" height="1800">

<defs>

  <g id="object" stroke="black" stroke-width="3" fill="none">

	<path d="M105 0 C70 0 70 0 70 30
			C70 225 70 225 35 250
			C0 275 0 275 0 400
			L0 720
			C0 750 0 750 35 750
			L175 750
			C210 750 210 750 210 720
			L210 400
			C210 275 210 275 175 250
			C140 225 140 225 140 30
			C140 0 140 0 105 0 Z" />

  </g>

    <g id="flower" stroke="black" stroke-width="3" fill="none">

		<path d="M200 3 Q185 30 200 30 T200 3 Z" />

		<path d="M200 30 Q215 200 200 450
				M0 80 Q170 150 207 280
				M400 120 Q350 250 205 359" />

  </g>

  <g id="jun" stroke="black" stroke-width="2" fill="none">

    <path d="M2 1 C50 15 -33 40 23 34
            M36 4 C34 6 17 35 38 34
            C54 35 47 -10 36 4 Z
            M65 1 Q60 7 60 35
            M97 9 C97 -7 64 5 85 15
            Q97 20 97 9
            Q95 30 97 35
            M124 2 C145 -5 145 11 124 12
            M134 10 Q140 10 145 14
            M123 19 C140 15 157 21 137 28
            M127 24 C130 37 130 36 145 33" />

  </g>

</defs>

  <use xlink:href="#object" x="545" y="750" />
  
  <use xlink:href="#flower" x="450" y="300" />

  <use xlink:href="#jun" x="1000" y="1650" />

</svg>
