<svg xmlns="http://www.w3.org/2000/svg"
  xmlns:xlink="http://www.w3.org/1999/xlink"
  width="1300" height="1800">

<defs>

  <g id="object" stroke="black" stroke-width="3" fill="none">

	<path d="M350 0 C80 0 150 370 69 420
			C0 470 -129 600 350 600
			C829 600 700 470 631 420
			C550 370 620 0 350 0 Z" />

  </g>

    <g id="flower" stroke="black" stroke-width="3" fill="none">

		<path d="M50 3 Q40 30 50 30 T50 3 Z
				M50 30 Q65 200 50 250
				M0 50 Q30 50 57 140
				M100 70 Q60 100 57.2 190" />

  </g>

  <g id="jun" stroke="black" stroke-width="2" fill="none">

    <path d="M2 1 C50 15 -33 40 23 34
            M36 4 C34 6 17 35 38 34
            C54 35 47 -10 36 4 Z
            M65 1 Q60 7 60 35
            M97 9 C97 -7 64 5 85 15
            Q97 20 97 9
            Q95 30 97 35
            M124 2 C145 -5 145 11 124 12
            M134 10 Q140 10 145 14
            M123 19 C140 15 157 21 137 28
            M127 24 C130 37 130 36 145 33" />

  </g>

</defs>

  <use xlink:href="#object" x="300" y="725" />
  
  <use xlink:href="#flower" x="600" y="475" />

  <use xlink:href="#jun" x="1050" y="1550" />

</svg>
