<svg xmlns="http://www.w3.org/2000/svg"
	xmlns:xlink="http://www.w3.org/1999/xlink"
	width="2700" height="1950">

<defs>
	<g id="object" stroke="black" stroke-width="3" fill="none">

		<rect width="700" height="700" rx="100" />
		<path d="M350 50 350 90
				M610 350 650 350
				M350 610 350 650
				M50 350 90 350" />

	</g>

	<g id="flower" stroke="black" stroke-width="3" fill="none">

		<path d="M10 0 Q0 30 10 30 T10 0 Z
				M10 30 Q16 200 10 300
				M0 80 Q10 120 13 170 M20 100 Q20 130 13 210" />

	</g>
	<g id="jun" stroke="black" stroke-width="2" fill="none">

		<path d="M2 1 C50 15 -33 40 23 34
				M36 4 C34 6 17 35 38 34
				C54 35 47 -10 36 4 Z
				M65 1 Q60 7 60 35
				M97 9 C97 -7 64 5 85 15
				Q97 20 97 9
				Q95 30 97 35
				M124 2 C145 -5 145 11 124 12
				M134 10 Q140 10 145 14
				M123 19 C140 15 157 21 137 28
				M127 24 C130 37 130 36 145 33" />

	</g>

</defs>

<rect width="2700" height="1950"
	stroke="none" fill="white" />

<use xlink:href="#object" x="1000" y="625" />

<use xlink:href="#flower" x="1340" y="825" />

<use xlink:href="#jun" x="1720" y="1635" />

</svg>