<svg xmlns="http://www.w3.org/2000/svg"
  xmlns:xlink="http://www.w3.org/1999/xlink"
  width="1300" height="1800">

<defs>

  <g id="object" stroke="black" stroke-width="3" fill="none">

    <path d="M0 0 650 0 650 900 0 900 Z
			M60 60 590 60 590 840 60 840 Z
			M325 115 Q340 95 325 95 T325 115 Z
			M325 60 Q330 90 325 95
			M340 100 Q340 90 327 80
			M310 95 Q320 90 327 75" />

  </g>
  
  <g id="jun" stroke="black" stroke-width="2" fill="none">

    <path d="M2 1 C50 15 -33 40 23 34
            M36 4 C34 6 17 35 38 34
            C54 35 47 -10 36 4 Z
            M65 1 Q60 7 60 35
            M97 9 C97 -7 64 5 85 15
            Q97 20 97 9
            Q95 30 97 35
            M124 2 C145 -5 145 11 124 12
            M134 10 Q140 10 145 14
            M123 19 C140 15 157 21 137 28
            M127 24 C130 37 130 36 145 33" />

  </g>

</defs>

  <use xlink:href="#object" x="325" y="450" />

  <use xlink:href="#jun" x="1000" y="1600" />

</svg>
