<svg xmlns="http://www.w3.org/2000/svg"
  xmlns:xlink="http://www.w3.org/1999/xlink"
  width="1300" height="1800">

<defs>

  <g id="object" stroke="black" stroke-width="3" fill="none">

    <path d="M250 0 C100 6 6 100 0 250
			C7 450 150 400 150 550
			C150 700 150 700 250 700
			C350 700 350 700 350 550
			C350 400 493 450 500 250
			C494 100 400 6 250 0
      M200 550 300 550
      M200 600 300 600
      M200 650 300 650
      M250 250 Q200 350 250 350 T250 250 Z
      M250 350 Q260 360 250 450
      M220 360 Q240 370 254 400
      M280 370 Q270 400 252 420" />

  </g>
  
  <g id="jun" stroke="black" stroke-width="2" fill="none">

    <path d="M2 1 C50 15 -33 40 23 34
            M36 4 C34 6 17 35 38 34
            C54 35 47 -10 36 4 Z
            M65 1 Q60 7 60 35
            M97 9 C97 -7 64 5 85 15
            Q97 20 97 9
            Q95 30 97 35
            M124 2 C145 -5 145 11 124 12
            M134 10 Q140 10 145 14
            M123 19 C140 15 157 21 137 28
            M127 24 C130 37 130 36 145 33" />

  </g>

</defs>

  <use xlink:href="#object" x="400" y="550" />

  <use xlink:href="#jun" x="950" y="1550" />

</svg>
