<svg xmlns="http://www.w3.org/2000/svg"
  xmlns:xlink="http://www.w3.org/1999/xlink"
  width="1300" height="1800">

<defs>

  <g id="object" stroke="black" stroke-width="3" fill="none">

	<path d="M0 0 30 0 30 800 0 800 Z
          M270 0 300 0 300 800 270 800 Z
          M30 80 270 80
          M30 160 270 160
          M30 240 270 240
          M30 320 270 320
          M30 400 270 400
          M30 480 270 480
          M30 640 270 640
          M30 720 270 720
          M270 560 Q250 545 250 560 T270 560
          M30 560 Q170 558 250 560
          M240 555 Q220 555 180 559
          M220 565 Q190 562 140 559" />

  </g>

  <g id="jun" stroke="black" stroke-width="2" fill="none">

    <path d="M2 1 C50 15 -33 40 23 34
            M36 4 C34 6 17 35 38 34
            C54 35 47 -10 36 4 Z
            M65 1 Q60 7 60 35
            M97 9 C97 -7 64 5 85 15
            Q97 20 97 9
            Q95 30 97 35
            M124 2 C145 -5 145 11 124 12
            M134 10 Q140 10 145 14
            M123 19 C140 15 157 21 137 28
            M127 24 C130 37 130 36 145 33" />

  </g>

</defs>

  <use xlink:href="#object" x="500" y="500" />
  
  <use xlink:href="#jun" x="950" y="1550" />

</svg>
