<svg xmlns="http://www.w3.org/2000/svg"
  xmlns:xlink="http://www.w3.org/1999/xlink"
  width="1300" height="1800">

<defs>

  <g id="object" stroke="black" stroke-width="3">

    <path d="M12 66 0 125 0 500 50 500 50 125 37 66" fill="none" />
    
    <path d="M12 66 25 0 37 66 Z" fill="black" />

  </g>

  <g id="flower" stroke="black" stroke-width="3" fill="none">

    <path d="M100 0 Q85 30 100 30 T100 0 Z" />

    <path d="M100 30 Q119 200 100 500
            M0 80 Q70 150 109 280
            M200 120 Q190 210 107 359" />

  </g>

  <g id="jun" stroke="black" stroke-width="2" fill="none">

    <path d="M2 1 C50 15 -33 40 23 34
            M36 4 C34 6 17 35 38 34
            C54 35 47 -10 36 4 Z
            M65 1 Q60 7 60 35
            M97 9 C97 -7 64 5 85 15
            Q97 20 97 9
            Q95 30 97 35
            M124 2 C145 -5 145 11 124 12
            M134 10 Q140 10 145 14
            M123 19 C140 15 157 21 137 28
            M127 24 C130 37 130 36 145 33" />

  </g>

</defs>

  <use xlink:href="#object" x="625" y="900" />

  <use xlink:href="#flower" x="550" y="400" />

  <use xlink:href="#jun" x="940" y="1560" />

</svg>
