<svg xmlns="http://www.w3.org/2000/svg"
  xmlns:xlink="http://www.w3.org/1999/xlink"
  width="2700" height="1950">

<defs>
  <g id="object" stroke="black" stroke-width="3" fill="none">
    
    <path d="M40 40 Q-35 200 30 450
          C50 517 400 500 900 495
          C1350 500 1170 400 1100 389
          C850 335 400 300 350 0
          C300 70 100 100 40 40 Z" />

  </g>
  
  <g id="flower" stroke="black" stroke-width="3" fill="none">

    <path d="M0 30 Q0 0 10 10 Q20 20 0 30 Z
            M10 10 Q10 5 15 0" />

  </g>

  <g id="jun" stroke="black" stroke-width="2" fill="none">

		<path d="M2 1 C50 15 -33 40 23 34
				M36 4 C34 6 17 35 38 34
				C54 35 47 -10 36 4 Z
				M65 1 Q60 7 60 35
				M97 9 C97 -7 64 5 85 15
				Q97 20 97 9
				Q95 30 97 35
				M124 2 C145 -5 145 11 124 12
				M134 10 Q140 10 145 14
				M123 19 C140 15 157 21 137 28
				M127 24 C130 37 130 36 145 33" />

  </g>

</defs>

  <rect width="2700" height="1950"
    stroke="none" fill="white" />

  <use xlink:href="#object" x="750" y="775" />

  <use xlink:href="#flower" x="1130" y="890" />

  <use xlink:href="#jun" x="1970" y="1450" />

</svg>
