<svg xmlns="http://www.w3.org/2000/svg"
  xmlns:xlink="http://www.w3.org/1999/xlink"
  width="1800" height="1300">

<defs>

  <g id="object" stroke="black" stroke-width="3" fill="none">

	<rect x="0" y="130" width="900" height="20" rx="10" />

	<path d="M800 130 C800 70 750 50 650 10
			C600 -15 500 0 500 130" />

  </g>

  <g id="flower" stroke="black" stroke-width="3" fill="none">

		<path d="M200 3 Q180 50 200 50 T200 3 Z" />

		<path d="M200 50 Q220 150 200 450
            M0 110 Q150 130 208 280
            M400 120 Q350 270 205 359" />

  </g>

  <g id="jun" stroke="black" stroke-width="2" fill="none">

    <path d="M2 1 C50 15 -33 40 23 34
            M36 4 C34 6 17 35 38 34
            C54 35 47 -10 36 4 Z
            M65 1 Q60 7 60 35
            M97 9 C97 -7 64 5 85 15
            Q97 20 97 9
            Q95 30 97 35
            M124 2 C145 -5 145 11 124 12
            M134 10 Q140 10 145 14
            M123 19 C140 15 157 21 137 28
            M127 24 C130 37 130 36 145 33" />

  </g>

</defs>
  <use xlink:href="#object" x="450" y="850" />
  
  <use xlink:href="#flower" x="855" y="400" />

  <use xlink:href="#jun" x="1500" y="1150" />

</svg>
