<svg xmlns="http://www.w3.org/2000/svg"
  xmlns:xlink="http://www.w3.org/1999/xlink"
  width="1300" height="1800">

<defs>

  <g id="object" stroke="black" stroke-width="3" fill="none">

    <path d="M50 40 Q0 500 0 700
            Q50 650 100 700
            Q100 500 50 40 Z
            M50 0 50 40 Z
            M50 850 Q60 830 50 830 T50 850 Z
            M50 675 Q55 750 50 830
            M65 827 Q65 825 52 810
            M35 830 Q45 820 51.5 800" />

  </g>

  <g id="jun" stroke="black" stroke-width="2" fill="none">

    <path d="M2 1 C50 15 -33 40 23 34
            M36 4 C34 6 17 35 38 34
            C54 35 47 -10 36 4 Z
            M65 1 Q60 7 60 35
            M97 9 C97 -7 64 5 85 15
            Q97 20 97 9
            Q95 30 97 35
            M124 2 C145 -5 145 11 124 12
            M134 10 Q140 10 145 14
            M123 19 C140 15 157 21 137 28
            M127 24 C130 37 130 36 145 33" />
  </g>
</defs>

  <use xlink:href="#object" x="575" y="485" />

  <use xlink:href="#jun" x="950" y="1550" />

</svg>
