<svg xmlns="http://www.w3.org/2000/svg"
  xmlns:xlink="http://www.w3.org/1999/xlink"
  width="1300" height="1800">

<defs>

  <g id="object" stroke="black" stroke-width="3" fill="none">

	<path d="M0 0 600 0 600 900 0 900 Z
			M60 60 540 60 540 840 60 840 Z" />

  </g>

  <g id="flower" stroke="black" stroke-width="3" fill="none">

	<path d="M50 220 Q40 200 50 200 T50 220 Z
			M50 0 Q60 180 50 200
			M100 180 Q80 130 55 120
			M0 150 Q40 150 54 90" />

  </g>

  <g id="jun" stroke="black" stroke-width="2" fill="none">

    <path d="M2 1 C50 15 -33 40 23 34
            M36 4 C34 6 17 35 38 34
            C54 35 47 -10 36 4 Z
            M65 1 Q60 7 60 35
            M97 9 C97 -7 64 5 85 15
            Q97 20 97 9
            Q95 30 97 35
            M124 2 C145 -5 145 11 124 12
            M134 10 Q140 10 145 14
            M123 19 C140 15 157 21 137 28
            M127 24 C130 37 130 36 145 33" />

  </g>

</defs>

  <use xlink:href="#object" x="350" y="350" />
  
  <use xlink:href="#flower" x="600" y="1250" />

  <use xlink:href="#jun" x="1050" y="1600" />

</svg>
