<svg xmlns="http://www.w3.org/2000/svg"
  xmlns:xlink="http://www.w3.org/1999/xlink"
  width="2700" height="1950">

<defs>
  <g id="object" stroke="black" stroke-width="3" fill="none">
    
    <path d="M0 150 0 0 70 0 70 155
            M0 150 380 170
            C390 350 390 400 400 500
            L0 500 Z
            M360 500 360 600 320 600 320 500
            M60 598.5 Q70 580 60 580 T60 598.5 Z
            M60 500 Q64 540 60 580
            M61 550 Q75 555 80 580
            M62 530 Q58 550 40 560" />
  </g>
  
  <g id="jun" stroke="black" stroke-width="2" fill="none">

		<path d="M2 1 C50 15 -33 40 23 34
				M36 4 C34 6 17 35 38 34
				C54 35 47 -10 36 4 Z
				M65 1 Q60 7 60 35
				M97 9 C97 -7 64 5 85 15
				Q97 20 97 9
				Q95 30 97 35
				M124 2 C145 -5 145 11 124 12
				M134 10 Q140 10 145 14
				M123 19 C140 15 157 21 137 28
				M127 24 C130 37 130 36 145 33" />
  
  </g>

</defs>

<rect width="2700" height="1950"
	stroke="none" fill="white" />

  <use xlink:href="#object" x="1150" y="705" />

  <use xlink:href="#jun" x="1700" y="1495" />

  
</svg>
